<svg xmlns="http://www.w3.org/2000/svg" width="1200" height="300" viewBox="0 0 1200 300" fill="none" role="img" aria-label="Sourabh Pawar - AI / ML Engineer">
  <defs>
    <linearGradient id="bg" x1="0" y1="0" x2="1" y2="1">
      <stop offset="0%" stop-color="#15161f"/><stop offset="50%" stop-color="#1a1b27"/><stop offset="100%" stop-color="#24243e"/>
    </linearGradient>
    <linearGradient id="title" x1="0" y1="0" x2="1" y2="0">
      <stop offset="0%" stop-color="#7aa2f7"/><stop offset="50%" stop-color="#bb9af7"/><stop offset="100%" stop-color="#7dcfff"/>
      <animate attributeName="x1" values="-0.3;0.3;-0.3" dur="6s" repeatCount="indefinite"/>
      <animate attributeName="x2" values="0.7;1.3;0.7" dur="6s" repeatCount="indefinite"/>
    </linearGradient>
    <linearGradient id="border" x1="0" y1="0" x2="1" y2="1">
      <stop offset="0%" stop-color="#7aa2f7"/><stop offset="50%" stop-color="#bb9af7"/><stop offset="100%" stop-color="#7dcfff"/>
    </linearGradient>
    <radialGradient id="glow" cx="50%" cy="50%" r="50%">
      <stop offset="0%" stop-color="#7aa2f7" stop-opacity="0.20"/><stop offset="100%" stop-color="#7aa2f7" stop-opacity="0"/>
    </radialGradient>
    <radialGradient id="glow2" cx="50%" cy="50%" r="50%">
      <stop offset="0%" stop-color="#bb9af7" stop-opacity="0.22"/><stop offset="100%" stop-color="#bb9af7" stop-opacity="0"/>
    </radialGradient>
  </defs>

  <rect x="2" y="2" width="1196" height="296" rx="20" fill="url(#bg)"/>
  <rect x="2" y="2" width="1196" height="296" rx="20" fill="none" stroke="url(#border)" stroke-width="2" stroke-opacity="0.55"
        stroke-dasharray="26 14"><animate attributeName="stroke-dashoffset" values="0;-160" dur="8s" repeatCount="indefinite"/></rect>
  <ellipse cx="280" cy="70" rx="440" ry="230" fill="url(#glow)"/>
  <ellipse cx="1000" cy="180" rx="360" ry="220" fill="url(#glow2)"/>
  <g fill="#565f89" opacity="0.10"><circle cx="60" cy="40" r="1.4"/><circle cx="60" cy="84" r="1.4"/><circle cx="60" cy="128" r="1.4"/><circle cx="60" cy="172" r="1.4"/><circle cx="60" cy="216" r="1.4"/><circle cx="60" cy="260" r="1.4"/><circle cx="104" cy="40" r="1.4"/><circle cx="104" cy="84" r="1.4"/><circle cx="104" cy="128" r="1.4"/><circle cx="104" cy="172" r="1.4"/><circle cx="104" cy="216" r="1.4"/><circle cx="104" cy="260" r="1.4"/><circle cx="148" cy="40" r="1.4"/><circle cx="148" cy="84" r="1.4"/><circle cx="148" cy="128" r="1.4"/><circle cx="148" cy="172" r="1.4"/><circle cx="148" cy="216" r="1.4"/><circle cx="148" cy="260" r="1.4"/><circle cx="192" cy="40" r="1.4"/><circle cx="192" cy="84" r="1.4"/><circle cx="192" cy="128" r="1.4"/><circle cx="192" cy="172" r="1.4"/><circle cx="192" cy="216" r="1.4"/><circle cx="192" cy="260" r="1.4"/><circle cx="236" cy="40" r="1.4"/><circle cx="236" cy="84" r="1.4"/><circle cx="236" cy="128" r="1.4"/><circle cx="236" cy="172" r="1.4"/><circle cx="236" cy="216" r="1.4"/><circle cx="236" cy="260" r="1.4"/><circle cx="280" cy="40" r="1.4"/><circle cx="280" cy="84" r="1.4"/><circle cx="280" cy="128" r="1.4"/><circle cx="280" cy="172" r="1.4"/><circle cx="280" cy="216" r="1.4"/><circle cx="280" cy="260" r="1.4"/><circle cx="324" cy="40" r="1.4"/><circle cx="324" cy="84" r="1.4"/><circle cx="324" cy="128" r="1.4"/><circle cx="324" cy="172" r="1.4"/><circle cx="324" cy="216" r="1.4"/><circle cx="324" cy="260" r="1.4"/><circle cx="368" cy="40" r="1.4"/><circle cx="368" cy="84" r="1.4"/><circle cx="368" cy="128" r="1.4"/><circle cx="368" cy="172" r="1.4"/><circle cx="368" cy="216" r="1.4"/><circle cx="368" cy="260" r="1.4"/><circle cx="412" cy="40" r="1.4"/><circle cx="412" cy="84" r="1.4"/><circle cx="412" cy="128" r="1.4"/><circle cx="412" cy="172" r="1.4"/><circle cx="412" cy="216" r="1.4"/><circle cx="412" cy="260" r="1.4"/><circle cx="456" cy="40" r="1.4"/><circle cx="456" cy="84" r="1.4"/><circle cx="456" cy="128" r="1.4"/><circle cx="456" cy="172" r="1.4"/><circle cx="456" cy="216" r="1.4"/><circle cx="456" cy="260" r="1.4"/><circle cx="500" cy="40" r="1.4"/><circle cx="500" cy="84" r="1.4"/><circle cx="500" cy="128" r="1.4"/><circle cx="500" cy="172" r="1.4"/><circle cx="500" cy="216" r="1.4"/><circle cx="500" cy="260" r="1.4"/><circle cx="544" cy="40" r="1.4"/><circle cx="544" cy="84" r="1.4"/><circle cx="544" cy="128" r="1.4"/><circle cx="544" cy="172" r="1.4"/><circle cx="544" cy="216" r="1.4"/><circle cx="544" cy="260" r="1.4"/><circle cx="588" cy="40" r="1.4"/><circle cx="588" cy="84" r="1.4"/><circle cx="588" cy="128" r="1.4"/><circle cx="588" cy="172" r="1.4"/><circle cx="588" cy="216" r="1.4"/><circle cx="588" cy="260" r="1.4"/><circle cx="632" cy="40" r="1.4"/><circle cx="632" cy="84" r="1.4"/><circle cx="632" cy="128" r="1.4"/><circle cx="632" cy="172" r="1.4"/><circle cx="632" cy="216" r="1.4"/><circle cx="632" cy="260" r="1.4"/><circle cx="676" cy="40" r="1.4"/><circle cx="676" cy="84" r="1.4"/><circle cx="676" cy="128" r="1.4"/><circle cx="676" cy="172" r="1.4"/><circle cx="676" cy="216" r="1.4"/><circle cx="676" cy="260" r="1.4"/><circle cx="720" cy="40" r="1.4"/><circle cx="720" cy="84" r="1.4"/><circle cx="720" cy="128" r="1.4"/><circle cx="720" cy="172" r="1.4"/><circle cx="720" cy="216" r="1.4"/><circle cx="720" cy="260" r="1.4"/><circle cx="764" cy="40" r="1.4"/><circle cx="764" cy="84" r="1.4"/><circle cx="764" cy="128" r="1.4"/><circle cx="764" cy="172" r="1.4"/><circle cx="764" cy="216" r="1.4"/><circle cx="764" cy="260" r="1.4"/><circle cx="808" cy="40" r="1.4"/><circle cx="808" cy="84" r="1.4"/><circle cx="808" cy="128" r="1.4"/><circle cx="808" cy="172" r="1.4"/><circle cx="808" cy="216" r="1.4"/><circle cx="808" cy="260" r="1.4"/><circle cx="852" cy="40" r="1.4"/><circle cx="852" cy="84" r="1.4"/><circle cx="852" cy="128" r="1.4"/><circle cx="852" cy="172" r="1.4"/><circle cx="852" cy="216" r="1.4"/><circle cx="852" cy="260" r="1.4"/><circle cx="896" cy="40" r="1.4"/><circle cx="896" cy="84" r="1.4"/><circle cx="896" cy="128" r="1.4"/><circle cx="896" cy="172" r="1.4"/><circle cx="896" cy="216" r="1.4"/><circle cx="896" cy="260" r="1.4"/><circle cx="940" cy="40" r="1.4"/><circle cx="940" cy="84" r="1.4"/><circle cx="940" cy="128" r="1.4"/><circle cx="940" cy="172" r="1.4"/><circle cx="940" cy="216" r="1.4"/><circle cx="940" cy="260" r="1.4"/><circle cx="984" cy="40" r="1.4"/><circle cx="984" cy="84" r="1.4"/><circle cx="984" cy="128" r="1.4"/><circle cx="984" cy="172" r="1.4"/><circle cx="984" cy="216" r="1.4"/><circle cx="984" cy="260" r="1.4"/><circle cx="1028" cy="40" r="1.4"/><circle cx="1028" cy="84" r="1.4"/><circle cx="1028" cy="128" r="1.4"/><circle cx="1028" cy="172" r="1.4"/><circle cx="1028" cy="216" r="1.4"/><circle cx="1028" cy="260" r="1.4"/><circle cx="1072" cy="40" r="1.4"/><circle cx="1072" cy="84" r="1.4"/><circle cx="1072" cy="128" r="1.4"/><circle cx="1072" cy="172" r="1.4"/><circle cx="1072" cy="216" r="1.4"/><circle cx="1072" cy="260" r="1.4"/><circle cx="1116" cy="40" r="1.4"/><circle cx="1116" cy="84" r="1.4"/><circle cx="1116" cy="128" r="1.4"/><circle cx="1116" cy="172" r="1.4"/><circle cx="1116" cy="216" r="1.4"/><circle cx="1116" cy="260" r="1.4"/></g>
  <g stroke="#7aa2f7" stroke-opacity="0.22" stroke-width="1.2">
    <line x1="845" y1="95" x2="975" y2="72"/>
    <line x1="845" y1="95" x2="975" y2="124"/>
    <line x1="845" y1="95" x2="975" y2="176"/>
    <line x1="845" y1="95" x2="975" y2="228"/>
    <line x1="845" y1="150" x2="975" y2="72"/>
    <line x1="845" y1="150" x2="975" y2="124"/>
    <line x1="845" y1="150" x2="975" y2="176"/>
    <line x1="845" y1="150" x2="975" y2="228"/>
    <line x1="845" y1="205" x2="975" y2="72"/>
    <line x1="845" y1="205" x2="975" y2="124"/>
    <line x1="845" y1="205" x2="975" y2="176"/>
    <line x1="845" y1="205" x2="975" y2="228"/>
    <line x1="975" y1="72" x2="1105" y2="120"/>
    <line x1="975" y1="72" x2="1105" y2="180"/>
    <line x1="975" y1="124" x2="1105" y2="120"/>
    <line x1="975" y1="124" x2="1105" y2="180"/>
    <line x1="975" y1="176" x2="1105" y2="120"/>
    <line x1="975" y1="176" x2="1105" y2="180"/>
    <line x1="975" y1="228" x2="1105" y2="120"/>
    <line x1="975" y1="228" x2="1105" y2="180"/>
  </g>
  <g fill="#7dcfff">
    <circle r="3" cx="845" cy="95"><animate attributeName="cx" values="845;975" dur="2.2s" begin="0.0s" repeatCount="indefinite"/><animate attributeName="cy" values="95;124" dur="2.2s" begin="0.0s" repeatCount="indefinite"/><animate attributeName="opacity" values="0;1;1;0" dur="2.2s" begin="0.0s" repeatCount="indefinite"/></circle>
    <circle r="3" cx="845" cy="150"><animate attributeName="cx" values="845;975" dur="2.2s" begin="0.7s" repeatCount="indefinite"/><animate attributeName="cy" values="150;124" dur="2.2s" begin="0.7s" repeatCount="indefinite"/><animate attributeName="opacity" values="0;1;1;0" dur="2.2s" begin="0.7s" repeatCount="indefinite"/></circle>
    <circle r="3" cx="845" cy="205"><animate attributeName="cx" values="845;975" dur="2.2s" begin="1.4s" repeatCount="indefinite"/><animate attributeName="cy" values="205;124" dur="2.2s" begin="1.4s" repeatCount="indefinite"/><animate attributeName="opacity" values="0;1;1;0" dur="2.2s" begin="1.4s" repeatCount="indefinite"/></circle>
    <circle r="3" cx="975" cy="72"><animate attributeName="cx" values="975;1105" dur="2.2s" begin="2.1s" repeatCount="indefinite"/><animate attributeName="cy" values="72;180" dur="2.2s" begin="2.1s" repeatCount="indefinite"/><animate attributeName="opacity" values="0;1;1;0" dur="2.2s" begin="2.1s" repeatCount="indefinite"/></circle>
    <circle r="3" cx="975" cy="228"><animate attributeName="cx" values="975;1105" dur="2.2s" begin="2.8s" repeatCount="indefinite"/><animate attributeName="cy" values="228;120" dur="2.2s" begin="2.8s" repeatCount="indefinite"/><animate attributeName="opacity" values="0;1;1;0" dur="2.2s" begin="2.8s" repeatCount="indefinite"/></circle>
  </g>
  <g>
    <circle cx="845" cy="95" r="7" fill="#16161e" stroke="#7aa2f7" stroke-width="2.5"><animate attributeName="r" values="6.5;8.5;6.5" dur="2.5s" begin="0.0s" repeatCount="indefinite"/><animate attributeName="stroke-opacity" values="0.6;1;0.6" dur="2.5s" begin="0.0s" repeatCount="indefinite"/></circle>
    <circle cx="845" cy="150" r="7" fill="#16161e" stroke="#7aa2f7" stroke-width="2.5"><animate attributeName="r" values="6.5;8.5;6.5" dur="2.5s" begin="0.25s" repeatCount="indefinite"/><animate attributeName="stroke-opacity" values="0.6;1;0.6" dur="2.5s" begin="0.25s" repeatCount="indefinite"/></circle>
    <circle cx="845" cy="205" r="7" fill="#16161e" stroke="#7aa2f7" stroke-width="2.5"><animate attributeName="r" values="6.5;8.5;6.5" dur="2.5s" begin="0.5s" repeatCount="indefinite"/><animate attributeName="stroke-opacity" values="0.6;1;0.6" dur="2.5s" begin="0.5s" repeatCount="indefinite"/></circle>
    <circle cx="975" cy="72" r="7" fill="#16161e" stroke="#bb9af7" stroke-width="2.5"><animate attributeName="r" values="6.5;8.5;6.5" dur="2.5s" begin="0.4s" repeatCount="indefinite"/><animate attributeName="stroke-opacity" values="0.6;1;0.6" dur="2.5s" begin="0.4s" repeatCount="indefinite"/></circle>
    <circle cx="975" cy="124" r="7" fill="#16161e" stroke="#bb9af7" stroke-width="2.5"><animate attributeName="r" values="6.5;8.5;6.5" dur="2.5s" begin="0.65s" repeatCount="indefinite"/><animate attributeName="stroke-opacity" values="0.6;1;0.6" dur="2.5s" begin="0.65s" repeatCount="indefinite"/></circle>
    <circle cx="975" cy="176" r="7" fill="#16161e" stroke="#bb9af7" stroke-width="2.5"><animate attributeName="r" values="6.5;8.5;6.5" dur="2.5s" begin="0.9s" repeatCount="indefinite"/><animate attributeName="stroke-opacity" values="0.6;1;0.6" dur="2.5s" begin="0.9s" repeatCount="indefinite"/></circle>
    <circle cx="975" cy="228" r="7" fill="#16161e" stroke="#bb9af7" stroke-width="2.5"><animate attributeName="r" values="6.5;8.5;6.5" dur="2.5s" begin="1.15s" repeatCount="indefinite"/><animate attributeName="stroke-opacity" values="0.6;1;0.6" dur="2.5s" begin="1.15s" repeatCount="indefinite"/></circle>
    <circle cx="1105" cy="120" r="7" fill="#16161e" stroke="#7dcfff" stroke-width="2.5"><animate attributeName="r" values="6.5;8.5;6.5" dur="2.5s" begin="0.8s" repeatCount="indefinite"/><animate attributeName="stroke-opacity" values="0.6;1;0.6" dur="2.5s" begin="0.8s" repeatCount="indefinite"/></circle>
    <circle cx="1105" cy="180" r="7" fill="#16161e" stroke="#7dcfff" stroke-width="2.5"><animate attributeName="r" values="6.5;8.5;6.5" dur="2.5s" begin="1.05s" repeatCount="indefinite"/><animate attributeName="stroke-opacity" values="0.6;1;0.6" dur="2.5s" begin="1.05s" repeatCount="indefinite"/></circle>
  </g>
  <text x="80" y="98" font-family="'Segoe UI',Helvetica,Arial,sans-serif" font-size="24" font-weight="600" fill="#7dcfff" opacity="0">
    👋 Hi there, I'm<animate attributeName="opacity" values="0;1" dur="0.8s" begin="0.1s" fill="freeze"/></text>
  <text x="78" y="168" font-family="'Segoe UI',Helvetica,Arial,sans-serif" font-size="60" font-weight="800" fill="url(#title)" letter-spacing="1" opacity="0">
    Sourabh Pawar<animate attributeName="opacity" values="0;1" dur="1s" begin="0.3s" fill="freeze"/></text>
  <rect x="80" y="184" width="0" height="3" rx="1.5" fill="url(#border)"><animate attributeName="width" values="0;360" dur="1s" begin="0.7s" fill="freeze"/></rect>
  <text x="104" y="226" font-family="'Cascadia Code',Consolas,monospace" font-size="23" font-weight="600" fill="#9ece6a">
    <tspan fill="#bb9af7">&#9656; </tspan>
    <tspan x="128" y="226" opacity="0">Machine Learning Engineer<animate attributeName="opacity" values="1;1;0;0" keyTimes="0;0.22;0.25;1" dur="8.0s" repeatCount="indefinite"/></tspan>
    <tspan x="128" y="226" opacity="0">LLM Agent Developer<animate attributeName="opacity" values="0;0;1;1;0;0" keyTimes="0;0.25;0.28;0.47;0.5;1" dur="8.0s" repeatCount="indefinite"/></tspan>
    <tspan x="128" y="226" opacity="0">Computer Vision Enthusiast<animate attributeName="opacity" values="0;0;1;1;0;0" keyTimes="0;0.5;0.53;0.72;0.75;1" dur="8.0s" repeatCount="indefinite"/></tspan>
    <tspan x="128" y="226" opacity="0">Backend &amp; MLOps Builder<animate attributeName="opacity" values="0;0;1;1" keyTimes="0;0.75;0.78;1" dur="8.0s" repeatCount="indefinite"/></tspan>
  </text>
  <g>
    <circle cx="150" cy="250" r="2.5" fill="#bb9af7" opacity="0.6"><animate attributeName="cy" values="250;235;250" dur="5s" repeatCount="indefinite"/></circle>
    <circle cx="620" cy="90" r="2" fill="#7dcfff" opacity="0.5"><animate attributeName="cy" values="90;75;90" dur="4.5s" repeatCount="indefinite"/></circle>
    <circle cx="700" cy="220" r="2.5" fill="#7aa2f7" opacity="0.5"><animate attributeName="cy" values="220;205;220" dur="5.5s" repeatCount="indefinite"/></circle>
  </g>
</svg>